# xmcd
#
# Track frame offsets:
#	150
#	13346
#	26113
#	38300
#	47461
#	58633
#	70580
#	84561
#	99416
#	112389
#	126987
#	142029
#	154348
#	168387
#	181661
#	192488
#	205515
#	219703
#	230538
#	243621
#	256686
#	271311
#	284906
#	300152
#	312109
#	324849
#	337298
#
# Disc length: 4700 seconds
# Revision: 0
# Processed by: cddbd v1.5.2PL0 Copyright (c) Steve Scherf et al.
# Submitted via: dBpowerAMP V12.0
#
DISCID=89125a1b
DTITLE=Various Artist - So Rare 2: A Second Selection By Barry Humphries Of His Favourite Gramophone Records
DYEAR=2000
DGENRE=Vintage
TTITLE0=Marjorie Stedeford - I'm Livin' In A Great Big Way
TTITLE1=Dick Bentley - Are You Having Any Fun?
TTITLE2=Nichaud Fitzgibbon - I Was Doing Alright
TTITLE3=John McMahon and Muriel Flood - One Two Button Your Shoe
TTITLE4=Eleanor Powell - Got A Bran' New Suit
TTITLE5=Al Bowlly - You Couldn't Be Cuter
TTITLE6=Ella Fitzgerald - Wacky Dust
TTITLE7=Bebe Daniels and Ben Lyon - There's A Small Hotel
TTITLE8=Fats Waller - You Had An Evening To Spare
TTITLE9=Greta Keller - Say It Isn't So
TTITLE10=Al Bowlly - It's All Forgotten Now
TTITLE11=Ruth Etting - Nevertheless (I'm In Love With You)
TTITLE12=Leslie "Hutch" Hutchinson - Flamingo
TTITLE13=Mildred Bailey - After Dinner Speech
TTITLE14=Joan Blake and Terry Howard - Sunday, Monday, Or Always
TTITLE15=Nichaud Fitzgibbon - Sweet and Low Down
TTITLE16=Chick Henderson - While A Cigarette Was Burning
TTITLE17=Greta Keller - Would You?
TTITLE18=Dick Todd - I Can't Get Started
TTITLE19=Vaughn De Leath - I'm In Love Again
TTITLE20=John Mills duet with Louise Brown - I'm On A See-Saw
TTITLE21=Marjorie Stedeford - Solitude
TTITLE22=Carl Brisson - Cocktails For Two
TTITLE23=Comedy Harmonists - Tea For Two
TTITLE24=Al Bowlly - Dinner At Eight
TTITLE25=Greta Keller - Take My Heart
TTITLE26=Turner Layton - Something To Remember You By
EXTD=
EXTT0=
EXTT1=
EXTT2=
EXTT3=
EXTT4=
EXTT5=
EXTT6=
EXTT7=
EXTT8=
EXTT9=
EXTT10=
EXTT11=
EXTT12=
EXTT13=
EXTT14=
EXTT15=
EXTT16=
EXTT17=
EXTT18=
EXTT19=
EXTT20=
EXTT21=
EXTT22=
EXTT23=
EXTT24=
EXTT25=
EXTT26=
PLAYORDER=
